<?xml version="1.0" encoding="utf-8"?>
<!-- Generator: Adobe Illustrator 16.0.0, SVG Export Plug-In . SVG Version: 6.00 Build 0)  -->
<!DOCTYPE svg PUBLIC "-//W3C//DTD SVG 1.1//EN" "http://www.w3.org/Graphics/SVG/1.1/DTD/svg11.dtd">
<svg version="1.1" id="Calque_1" xmlns="http://www.w3.org/2000/svg" xmlns:xlink="http://www.w3.org/1999/xlink" x="0px" y="0px"
	 width="136.77px" height="93.17px" viewBox="0 0 136.77 93.17" enable-background="new 0 0 136.77 93.17" xml:space="preserve">
<path fill-rule="evenodd" clip-rule="evenodd" fill="#575756" d="M18.154,64.721c0-0.683,0-1.209,0-1.738
	c0-18.57-0.001-37.142,0.001-55.713c0-3.138,1.056-4.205,4.204-4.205c31.625-0.003,63.25-0.003,94.873,0
	c3.069,0,4.105,1.051,4.105,4.112c0.003,18.623,0.001,37.248,0.001,55.873c0,0.523,0,1.046,0,1.671
	C86.93,64.721,52.632,64.721,18.154,64.721z M69.801,61.262c15.221,0,30.44-0.021,45.662,0.031c1.501,0.005,1.983-0.368,1.979-1.936
	c-0.055-16.707-0.062-33.411,0.005-50.117c0.007-1.695-0.561-1.987-2.092-1.986C84.966,7.294,54.579,7.297,24.19,7.25
	c-1.593-0.003-2.06,0.373-2.053,2.02c0.063,16.652,0.038,33.304,0.039,49.957c0,2.032,0.003,2.035,2.122,2.035
	C39.465,61.262,54.633,61.262,69.801,61.262z"/>
<path fill-rule="evenodd" clip-rule="evenodd" fill="#575756" d="M18.153,65.688c34.449,0,68.693,0,103.11,0
	c0,2.513,0.186,4.999-0.104,7.43c-0.099,0.825-1.306,1.652-2.182,2.198c-0.561,0.35-1.439,0.235-2.179,0.238
	c-31.344,0.007-62.688,0.007-94.033,0.005c-3.657,0-4.611-0.958-4.612-4.61C18.153,69.255,18.153,67.562,18.153,65.688z
	 M69.733,68.331c-1.287,0.02-2.307,1.089-2.246,2.354c0.057,1.209,1.063,2.136,2.301,2.124c1.331-0.016,2.282-1.013,2.225-2.339
	C71.963,69.228,70.985,68.312,69.733,68.331z"/>
<path fill-rule="evenodd" clip-rule="evenodd" fill="#575756" d="M86.248,89.992c-1.021,0.056-1.542,0.11-2.062,0.11
	c-9.601,0.005-19.202,0.012-28.802-0.016c-0.564-0.002-1.128-0.295-1.692-0.451c0.298-0.467,0.493-1.074,0.909-1.377
	c3.449-2.521,5.022-5.871,4.668-10.13c-0.036-0.42,0.032-0.847,0.064-1.271c0.008-0.101,0.064-0.196,0.14-0.42
	c6.815,0,13.671,0,20.633,0c0.145,1.782,0.33,3.561,0.421,5.343c0.073,1.437,0.468,2.653,1.601,3.642
	c1.076,0.939,2.051,1.998,3.039,3.034C85.497,88.804,85.729,89.245,86.248,89.992z"/>
<path fill-rule="evenodd" clip-rule="evenodd" fill="#575756" d="M91.058,55.916c0.919,0,2.183,0,3.534,0
	c0.634,3.254,3.236,1.784,5.107,2.021c1.244,0.157,2.008-0.552,1.981-1.89c1.037-0.37,1.658-0.176,2.036,0.864
	c1.361,3.75,2.143,3.688-2.392,3.687c-21.474-0.01-42.945-0.003-64.417-0.011c-0.712,0-1.425-0.11-2.459-0.193
	c0.726-1.731,1.324-3.159,2.065-4.93c1.058,2.742,1.058,2.742,4.211,2.74c2.612-0.001,2.612-0.001,3.571-2.484
	c0.82,0.807,0.463,2.604,2.164,2.488c1.161-0.08,2.335-0.077,3.497,0.002c1.701,0.112,1.414-1.618,2.345-2.691
	c0.401,4.015,3.22,2.384,5.152,2.659c1.612,0.229,1.994-1.01,2.157-2.292c0.783,0.811,1.374,1.888,2.242,2.205
	c1.031,0.377,2.3,0.085,3.467,0.113c1.569,0.038,1.907-1.021,2.151-2.513c0.633,2.062,1.889,2.789,3.883,2.55
	c1.737-0.209,3.872,0.523,3.932-2.75c0.845,4.084,3.744,2.541,5.834,2.591c0.703,0.017,1.434-1.189,2.203-1.883
	c0.782,3.495,3.783,1.779,6.079,1.818C89.861,58.025,90.34,56.866,91.058,55.916z"/>
<path fill-rule="evenodd" clip-rule="evenodd" fill="#575756" d="M56.169,52.072c2.64-0.021,2.641-0.021,2.638,2.556
	c0,0.686,0.254,1.596-0.087,2.002c-0.433,0.516-1.37,0.889-2.059,0.846c-1.147-0.071-2.799,0.831-3.341-0.802
	c-0.379-1.141-0.14-2.515-0.029-3.772c0.027-0.304,0.601-0.709,0.984-0.795C54.88,51.976,55.535,52.072,56.169,52.072z"/>
<path fill-rule="evenodd" clip-rule="evenodd" fill="#575756" d="M79.298,57.535c-3.37,0.046-2.736-0.189-2.762-3.238
	c-0.018-2.248-0.002-2.248,2.959-2.246c2.606,0.001,2.606,0.001,2.602,3.394C82.095,57.535,82.095,57.535,79.298,57.535z"/>
<path fill-rule="evenodd" clip-rule="evenodd" fill="#575756" d="M43.268,54.934c0,2.602,0,2.591-2.914,2.604
	c-3.254,0.017-2.586-0.162-2.619-3.362c-0.022-2.127-0.004-2.127,3.061-2.125C43.268,52.052,43.268,52.052,43.268,54.934z"/>
<path fill-rule="evenodd" clip-rule="evenodd" fill="#575756" d="M68.771,54.726c0-2.675,0-2.666,2.834-2.677
	c3.33-0.012,2.653,0.081,2.69,3.442c0.022,2.046,0.004,2.046-2.981,2.044C68.771,57.534,68.771,57.534,68.771,54.726z"/>
<path fill-rule="evenodd" clip-rule="evenodd" fill="#575756" d="M45.502,54.76c0.019-2.587-0.526-2.741,2.934-2.713
	c2.554,0.021,2.554,0.005,2.553,3.252c-0.001,2.239-0.001,2.239-3.092,2.236C45.502,57.532,45.502,57.532,45.502,54.76z"/>
<path fill-rule="evenodd" clip-rule="evenodd" fill="#575756" d="M66.538,54.881c0,2.654,0,2.654-2.834,2.654
	c-2.66,0-2.66,0-2.659-3.308c0.001-2.179,0.001-2.179,2.995-2.177C66.538,52.052,66.538,52.052,66.538,54.881z"/>
<path fill-rule="evenodd" clip-rule="evenodd" fill="#575756" d="M87.064,57.535c-2.736,0-2.736,0-2.735-3.225
	c0.001-2.262,0.001-2.262,2.908-2.26c2.582,0.001,2.582,0.001,2.579,3.38C89.814,57.535,89.814,57.535,87.064,57.535z"/>
<path fill-rule="evenodd" clip-rule="evenodd" fill="#575756" d="M95.491,54.447c0-2.674,0-2.674,2.83-2.674
	c2.665,0,2.665,0,2.664,3.312c-0.003,2.195-0.003,2.195-2.99,2.192C95.491,57.275,95.491,57.275,95.491,54.447z"/>
</svg>
