<?xml version="1.0" encoding="utf-8"?>
<!-- Generator: Adobe Illustrator 16.0.0, SVG Export Plug-In . SVG Version: 6.00 Build 0)  -->
<!DOCTYPE svg PUBLIC "-//W3C//DTD SVG 1.1//EN" "http://www.w3.org/Graphics/SVG/1.1/DTD/svg11.dtd">
<svg version="1.1" id="Calque_1" xmlns="http://www.w3.org/2000/svg" xmlns:xlink="http://www.w3.org/1999/xlink" x="0px" y="0px"
	 width="205.8px" height="205.8px" viewBox="0 0 205.8 205.8" enable-background="new 0 0 205.8 205.8" xml:space="preserve">
<path fill="#FFF271" d="M205.798,171.178c0,19.119-15.5,34.619-34.619,34.619H34.621c-19.12,0-34.62-15.5-34.62-34.619V34.62
	C0,15.499,15.5,0,34.621,0h136.558c19.119,0,34.619,15.499,34.619,34.62V171.178z"/>
<polygon fill="#FFFFFF" points="166.618,83.578 174.319,83.587 169.628,89.694 171.999,97.021 164.741,94.446 158.505,98.965 
	158.711,91.267 152.486,86.733 159.871,84.55 162.261,77.229 "/>
<rect x="164.46" y="81.439" transform="matrix(0.9392 0.3434 -0.3434 0.9392 43.4311 -53.1876)" fill="#9D9D9C" stroke="#633612" stroke-miterlimit="10" width="14.832" height="29.166"/>
<rect x="166.627" y="82.265" transform="matrix(0.9392 0.3434 -0.3434 0.9392 43.8466 -53.8816)" fill="#9D9D9C" stroke="#633612" stroke-miterlimit="10" width="14.832" height="29.166"/>
<rect x="75.196" y="134.416" fill="#3CBFF0" stroke="#633612" stroke-miterlimit="10" width="39.265" height="18.846"/>
<path fill="#3CBFF0" stroke="#633612" stroke-miterlimit="10" d="M96.014,166.635c0-19.514-15.819-35.334-35.333-35.334
	c-18.588,0-33.812,14.357-35.217,32.584h-0.034v0.451c-0.049,0.762-0.083,1.525-0.083,2.299s0.034,1.539,0.083,2.299v66.285h70.333
	v-64.432C95.922,169.424,96.014,168.041,96.014,166.635z"/>
<rect x="-1.6" y="205.73" fill="#FFFFFF" width="209" height="123"/>
<line fill="none" stroke="#64350D" stroke-width="2" stroke-miterlimit="10" x1="106.181" y1="115.928" x2="109.431" y2="115.428"/>
<path fill="#FEEDDD" stroke="#633612" stroke-miterlimit="10" d="M60.661,133.949v-19.624h-13.5l0.174,20.5
	c0.079,3.626,3.036,6.542,6.68,6.542c3.693,0,6.688-2.994,6.688-6.688C60.702,134.433,60.687,134.189,60.661,133.949z"/>
<rect x="37.181" y="173.011" transform="matrix(0.9614 -0.2753 0.2753 0.9614 -48.758 19.178)" fill="#FEEDDD" width="13.5" height="20.5"/>
<circle fill="#3BBFF0" cx="39.348" cy="178.762" r="10.833"/>
<circle fill="#FEEDDD" stroke="#633612" stroke-miterlimit="10" cx="78.18" cy="76.6" r="50"/>
<path fill="#FFFFFF" d="M123.987,74.21c0,0-1.131,0.696-0.695,1.826c0,0,2.435,10,8.869,8.696c0,0,4.521-0.783,7.652-3.391
	c0,0,2.957-5.652-0.174-7.043C139.64,74.298,134.683,72.385,123.987,74.21z"/>
<path fill="#FFFFFF" d="M110.585,76.889c0,0,1.625,1,1,2.625c0,0-3.5,14.375-12.75,12.5c0,0-6.5-1.125-11-4.875
	c0,0-4.25-8.125,0.25-10.125C88.085,77.014,95.21,74.264,110.585,76.889z"/>
<path fill="none" stroke="#64350D" stroke-width="2" stroke-miterlimit="10" d="M112.118,78.68
	c0.043,8.453-6.362,15.339-14.309,15.381c-7.945,0.042-14.423-6.778-14.467-15.231c-0.011-2.113,1.099-5.964,1.099-5.964
	l25.986-1.31C110.427,71.557,112.104,76.104,112.118,78.68z"/>
<path fill="none" stroke="#64350D" stroke-width="2" stroke-miterlimit="10" d="M141.339,75.526
	c0.037,7.285-4.224,13.213-9.518,13.242c-5.294,0.027-9.617-5.857-9.654-13.143c-0.01-1.821,0.725-5.138,0.725-5.138l17.312-1.103
	C140.204,69.384,141.326,73.306,141.339,75.526z"/>
<path fill="none" stroke="#64350D" stroke-width="2" stroke-miterlimit="10" d="M111.38,72.752c0,0,6.926-5.268,10.76,0.518"/>
<polyline fill="none" stroke="#64350D" stroke-width="2" stroke-miterlimit="10" points="119.335,75.348 125.585,92.098 
	115.835,96.848 "/>
<path fill="none" stroke="#64350D" stroke-width="2" stroke-miterlimit="10" d="M101.056,104.734l2.5,3.5c0,0,10.75,1.5,14.25-1.75"
	/>
<circle fill="#64350D" cx="103.337" cy="82.847" r="5.25"/>
<circle fill="#64350D" cx="131.937" cy="79.428" r="3.5"/>
<path fill="none" stroke="#64350D" stroke-width="2" stroke-miterlimit="10" d="M100.181,62.928c0,0-8.5-3.25-15.5,5.5"/>
<path fill="none" stroke="#64350D" stroke-width="2" stroke-miterlimit="10" d="M118.931,63.428c0,0,3,3.25,5.75,0.5"/>
<g>
	<g>
		<path fill="#FBD2BB" d="M62.68,68.01c18.346-0.284,35.344-8.465,50.358-18.458c6.626-4.41,10.462-10.912,14.134-17.78
			c2.146-4.014,0.438-12.474-1.333-16.523c-0.992-2.272-4.849-1.139-4.658,1.262c0.355,4.475,0.886,8.299-0.183,12.77
			c-0.555,2.319-1.359,4.526-2.476,6.635c-1.602,3.021-6.044,4.337-8.771,6.103c-2.695,1.745-0.191,6.076,2.523,4.317
			c2.302-1.49,6.44-2.628,8.173-4.724c2.026-2.449,3.38-4.964,4.471-7.942c2.152-5.874,1.742-11.108,1.262-17.159
			c-1.553,0.42-3.105,0.841-4.658,1.262c5.481,12.543-5.479,24.319-15.438,30.246c-13.442,8-27.443,14.745-43.405,14.992
			C59.459,63.06,59.454,68.06,62.68,68.01L62.68,68.01z"/>
	</g>
</g>
<g>
	<g>
		<path fill="#FBD2BB" d="M63.18,68.843c0-0.111,0-0.222,0-0.333c-1.667,0-3.333,0-5,0c0.5,7.205,0.333,14.439,0.333,21.667
			c0,3.224,5,3.224,5,0c0-0.667,0-1.333,0-2c0-3.224-5-3.224-5,0c0,0.667,0,1.333,0,2c0,3.224,5,3.224,5,0
			c0-7.228,0.166-14.461-0.333-21.667c-0.221-3.184-5-3.255-5,0c0,0.111,0,0.222,0,0.333C58.18,72.067,63.18,72.067,63.18,68.843
			L63.18,68.843z"/>
	</g>
</g>
<g>
	<g>
		<path fill="#FBD2BB" d="M32.847,90.51c0,0.222,0,0.444,0,0.667c1.055-0.804,2.11-1.607,3.165-2.411
			c-2.501-0.521-5.049-3.014-6.897-4.703c-1.787-1.633-0.694-4.43-1.107-6.718c-1.239-6.856-1.758-13.885-2.161-20.835
			c-0.186-3.205-5.187-3.223-5,0c0.489,8.442,2.706,17.444,2.109,25.802c-0.347,4.861,7.573,10.411,11.726,11.275
			c1.576,0.328,3.165-0.708,3.165-2.411c0-0.222,0-0.444,0-0.667C37.847,87.286,32.847,87.286,32.847,90.51L32.847,90.51z"/>
	</g>
</g>
<g>
	<g>
		<path fill="#FBD2BB" d="M27.603,26.845c-0.391,1.596-1.614,3.206-2.247,4.753c-0.801,1.959-1.342,3.993-2,6
			c-1.206,3.679-2.521,8.021-2.509,11.912c0.024,7.713,0.068,16.276,2.422,23.665c0.975,3.06,5.803,1.752,4.821-1.329
			c-1.221-3.832-1.549-7.417-1.599-11.418c-0.048-3.948-1.171-7.982-0.414-11.919c0.726-3.773,1.389-7.416,2.593-11.086
			c1.037-3.162,2.977-6.077,3.753-9.247C33.19,25.042,28.369,23.714,27.603,26.845L27.603,26.845z"/>
	</g>
</g>
<path fill="#64350D" d="M63.431,69.278v25.158l-6.25,0.242l-10.75-8.708l-9.97,12.996c0,0-8.281,1.214-12.78-12.996
	c0,0-8.25-42.09,4.5-58.056c0,0,2-5.322,27.5-8.95c1.25-0.968,47.25-5.08,53.75-18.626c0.5-1.209,19.25,5.322,19,29.028
	C128.431,29.365,124.681,59.36,63.431,69.278z"/>
<path fill="#FEEDDD" stroke="#633612" stroke-miterlimit="10" d="M56.431,91.678c0,3.276-1.5,6.201-3.85,8.126
	c-1.811,1.483-4.126,2.373-6.65,2.374c-5.799,0-10.5-4.701-10.5-10.5s4.701-10.5,10.5-10.5S56.431,85.878,56.431,91.678z"/>
<g>
	<circle fill="#FEEDDD" cx="75.196" cy="112.971" r="2.984"/>
	
		<rect x="72.185" y="112.906" transform="matrix(-0.9999 -0.0104 0.0104 -0.9999 149.1694 235.732)" fill="#FEEDDD" width="6.023" height="9.146"/>
</g>
<line fill="none" stroke="#64350D" stroke-width="2" stroke-miterlimit="10" x1="107.211" y1="112.012" x2="110.836" y2="112.012"/>
<rect x="47.69" y="111.146" fill="#FEEDDD" width="12.492" height="20.5"/>
<rect x="83.128" y="143.84" fill="#3BBFF0" width="15.083" height="8.924"/>
<path fill="#FEEDDD" stroke="#633612" stroke-miterlimit="10" d="M107.249,118.925l-10.793,5.922
	c-4.747,1.341-12.28,1.26-17.424,0.995c-1.482-0.838-0.871-3.759-0.871-3.759l0.094-9.146c-2.927-5.74-6.022-0.062-6.022-0.062
	l-0.029,2.803c-0.312,7.833-1.992,8.229-1.992,8.229c-7.275,3.447-3.592,12.724-3.592,12.724L47.86,172.244l1.719,4.264
	c-3.085,11.727-11.592,12.666-11.592,12.666l6.387,15.547c13.443,7.848,21.141-19.348,21.141-19.348l10.292-40.176l11.993,1.088
	c8.507-0.939,8.049-6.692,8.049-6.692l3.07-9.728l5.765-1.959l3.282-4.477C108.985,120.688,107.249,118.925,107.249,118.925z"/>
<path fill="none" stroke="#633612" stroke-miterlimit="10" d="M175.797,86.098c0,0,1.06-3.078,2.863-1.248l4.304,8.33"/>
<path fill="#FEEDDD" stroke="#633612" stroke-miterlimit="10" d="M189.342,92.717l-6.608-15.168c0,0-2.688-1.138-3.645,1.252
	l0.421,0.954l-0.001-0.001c-3.077-1.121-3.76,2.061-3.76,2.061c-0.34-0.438-0.551-0.712-0.551-0.712
	c-2.359-0.989-1.97,1.638-1.97,1.638c-3.043,0.251-2.425,3.341-2.425,3.341l4.642,8.255l-2.452,5.042
	c-2.451,5.042,0.212,9.724,0.212,9.724l-34.744,25.314h-24c0,0,1.008,18.348,0.417,18.348c-1.375,0,30.866,0.344,31.659,0
	c5.825-0.385,7.174-2.752,7.174-2.752l27.876-39.07c1.232-1.417,4.126-4.827,5.421-7.063L189.342,92.717z"/>
<rect x="47.69" y="93.678" fill="#FEEDDD" width="20.961" height="10.056"/>
</svg>
