<?xml version="1.0" encoding="utf-8"?>
<!-- Generator: Adobe Illustrator 16.0.0, SVG Export Plug-In . SVG Version: 6.00 Build 0)  -->
<!DOCTYPE svg PUBLIC "-//W3C//DTD SVG 1.1//EN" "http://www.w3.org/Graphics/SVG/1.1/DTD/svg11.dtd">
<svg version="1.1" id="Calque_1" xmlns="http://www.w3.org/2000/svg" xmlns:xlink="http://www.w3.org/1999/xlink" x="0px" y="0px"
	 width="205.8px" height="205.8px" viewBox="0 0 205.8 205.8" enable-background="new 0 0 205.8 205.8" xml:space="preserve">
<path fill="#E84436" d="M205.999,170.785c0,19.12-15.5,34.62-34.619,34.62H34.822c-19.12,0-34.62-15.5-34.62-34.62V34.229
	c0-19.121,15.5-34.62,34.62-34.62H171.38c19.119,0,34.619,15.499,34.619,34.62V170.785z"/>
<path fill="#FFF271" stroke="#633612" stroke-miterlimit="10" d="M95.183,42.373c0,0,6.947,41.527,65.527,51.014
	c0,0,5.715-75.18-63.995-65.18c0,0-55.183-2.492-50.507,62.754v65.994l111.246,0.146l-1.474-76.641"/>
<circle fill="#FEEDDD" stroke="#633612" stroke-miterlimit="10" cx="158.35" cy="90.961" r="10.5"/>
<circle fill="#FEEDDD" stroke="#633612" stroke-miterlimit="10" cx="49.683" cy="92.007" r="10.5"/>
<circle fill="#FEEDDD" stroke="#633612" stroke-miterlimit="10" cx="103.684" cy="90.294" r="50"/>
<path fill="#FFFFFF" d="M111.798,83.882c0,0-1.625,1-1,2.625c0,0,3.5,14.375,12.75,12.5c0,0,6.5-1.125,11-4.875
	c0,0,4.25-8.125-0.25-10.125C134.298,84.007,127.173,81.257,111.798,83.882z"/>
<circle fill="#64350D" cx="123.548" cy="88.757" r="5.25"/>
<path fill="#FFFFFF" d="M94.858,83.882c0,0,1.625,1,1,2.625c0,0-3.5,14.375-12.75,12.5c0,0-6.5-1.125-11-4.875
	c0,0-4.25-8.125,0.25-10.125C72.358,84.007,79.483,81.257,94.858,83.882z"/>
<circle fill="#64350D" cx="83.108" cy="88.757" r="5.25"/>
<circle fill="#FEEDDD" stroke="#523A13" stroke-miterlimit="10" cx="106.562" cy="150.269" r="6.687"/>
<rect x="99.208" y="129.914" fill="#FEEDDD" width="13.5" height="20.5"/>
<path fill="none" stroke="#64350D" stroke-width="2" stroke-miterlimit="10" d="M112.226,66.954c0,0,16.75-6,26,2.25"/>
<path fill="none" stroke="#64350D" stroke-width="2" stroke-miterlimit="10" d="M93.976,66.454c0,0-16.75-6-26,2.25"/>
<polyline fill="none" stroke="#64350D" stroke-width="2" stroke-miterlimit="10" points="96.351,108.123 104.082,110.123 
	111.833,108.123 "/>
<path fill="none" stroke="#64350D" stroke-width="2" stroke-miterlimit="10" d="M99.208,120.983c0,0,13.975,0.891,19.893-6.36"/>
<path fill="none" stroke="#64350D" stroke-width="2" stroke-miterlimit="10" d="M109.154,122.87c0,0,3.524-0.167,6.747-2.083"/>
<path fill="#9D9D9C" d="M141.374,181.331c-1.719-17.91-16.805-31.917-35.165-31.917c-18.361,0-33.447,14.007-35.166,31.917
	l-0.751,71.334h71.333L141.374,181.331z"/>
<path fill-rule="evenodd" clip-rule="evenodd" fill="#FFF271" d="M97.851,187.108c0.168,0.384,0.302,0.782,0.493,1.156
	c1.403,2.739,3.559,4.567,6.585,5.218c2.602,0.561,5.093,0.168,7.364-1.278c1.771-1.129,2.826-2.763,3.256-4.81
	c0.037-0.178,0.035-0.179-0.147-0.179c-2.771,0-5.542,0.001-8.312,0c-0.225,0-0.198,0.028-0.199-0.198
	c0-1.945,0.002-3.892-0.003-5.837c-0.001-0.142,0.038-0.169,0.173-0.169c4.882,0.003,9.765,0.003,14.647,0
	c0.128,0,0.178,0.029,0.199,0.16c0.193,1.181,0.295,2.367,0.269,3.563c-0.05,2.272-0.458,4.473-1.367,6.565
	c-0.755,1.738-1.804,3.273-3.169,4.594c-2.006,1.94-4.406,3.121-7.119,3.676c-2.987,0.611-5.948,0.514-8.84-0.508
	c-4.005-1.415-6.987-4.029-8.974-7.78c-0.024-0.045-0.04-0.095-0.06-0.142c0.577-0.447,1.155-0.893,1.731-1.34
	C95.536,188.903,96.694,188.006,97.851,187.108z"/>
<path fill-rule="evenodd" clip-rule="evenodd" fill="#E84436" d="M97.851,187.108c-1.157,0.897-2.315,1.795-3.473,2.692
	c-0.577,0.447-1.154,0.893-1.731,1.34c-0.391-0.734-0.693-1.506-0.947-2.297c-0.537-1.673-0.788-3.391-0.752-5.146
	c0.046-2.331,0.552-4.56,1.598-6.645c2.274-4.535,5.888-7.409,10.82-8.603c1.875-0.454,3.778-0.505,5.69-0.255
	c2.742,0.358,5.208,1.385,7.395,3.078c0.346,0.268,0.676,0.551,1,0.843c0.084,0.075,0.078,0.118,0.002,0.194
	c-1.434,1.429-2.864,2.859-4.293,4.292c-0.074,0.075-0.119,0.081-0.199,0.007c-1.576-1.45-3.44-2.217-5.573-2.311
	c-2.893-0.126-5.331,0.898-7.334,2.971c-0.958,0.992-1.654,2.15-2.124,3.446c-0.749,2.067-0.771,4.149-0.117,6.243
	C97.828,187.008,97.838,187.059,97.851,187.108z"/>
<rect x="24.298" y="205.405" fill="#FFFFFF" width="209" height="61.5"/>
<path fill="#FEEDDD" stroke="#633612" stroke-miterlimit="10" d="M112.708,130.425h-13.5v20.5h0.088
	c0.262,3.454,3.141,6.177,6.662,6.177c3.521,0,6.4-2.723,6.662-6.177h0.088V130.425z"/>
<path fill="#FEEDDD" d="M91.726,137.936c0,0,16.562,2.688,24.688,0c0,0-0.375-10.25-0.312-10.062s-19.312-0.003-19.312-0.003
	L91.726,137.936z"/>
<path fill="#FFF271" d="M91.726,40.294c0,0,11.208,46.847,65.125,53.713v-29.16l-27.5-24.553l-33.349-8.087L91.726,40.294z"/>
<path fill="#FFF271" d="M93.976,40.485c0,0-19.962,30.755-43.375,61.167l5.941-44.254l33.904-25L93.976,40.485z"/>
<path fill="none" stroke="#633612" stroke-miterlimit="10" d="M160.823,80.461c-2.861,0.588-3.973,0-3.973,0s0,12.235,0,13.546
	C106.018,89.141,92.018,41.54,92.018,41.54l-41.417,60.112l2.621-19.521c0,0-4.902-2.586-7.275-0.624"/>
</svg>
