<?xml version="1.0" encoding="utf-8"?>
<!-- Generator: Adobe Illustrator 16.0.0, SVG Export Plug-In . SVG Version: 6.00 Build 0)  -->
<!DOCTYPE svg PUBLIC "-//W3C//DTD SVG 1.1//EN" "http://www.w3.org/Graphics/SVG/1.1/DTD/svg11.dtd">
<svg version="1.1" id="Calque_1" xmlns="http://www.w3.org/2000/svg" xmlns:xlink="http://www.w3.org/1999/xlink" x="0px" y="0px"
	 width="205.8px" height="205.8px" viewBox="0 0 205.8 205.8" enable-background="new 0 0 205.8 205.8" xml:space="preserve">
<path fill="#3BBFF0" d="M205.798,170.927c0,19.12-15.5,34.62-34.62,34.62H34.62c-19.12,0-34.62-15.5-34.62-34.62V34.37
	C0,15.249,15.5-0.25,34.62-0.25h136.558c19.12,0,34.62,15.499,34.62,34.62V170.927z"/>
<path fill="#64350D" d="M155.897,100.482l0.667,104c0,0-11.334,16.667-47.334,3.334l-1.333-51.334l37.333-54L155.897,100.482z"/>
<rect x="66.314" y="196.482" fill="#9D9D9C" stroke="#633612" stroke-miterlimit="10" width="71.333" height="44.373"/>
<circle fill="#FEEDDD" stroke="#633612" stroke-miterlimit="10" cx="49.398" cy="109.648" r="10.5"/>
<circle fill="#FEEDDD" stroke="#633612" stroke-miterlimit="10" cx="155.398" cy="110.982" r="10.5"/>
<polygon fill="#64350D" points="59.897,91.815 59.897,134.482 52.564,125.148 50.232,95.815 "/>
<circle fill="#9D9D9C" cx="102.231" cy="199.899" r="35.333"/>
<circle fill="#FEEDDD" stroke="#523A13" stroke-miterlimit="10" cx="102.898" cy="108.648" r="50"/>
<path fill="#64350D" d="M91.898,68.482c0,0,47.667,20.833,64.334,64.833C156.232,133.315,168.564,57.815,91.898,68.482z"/>
<circle fill="#FEEDDD" stroke="#523A13" stroke-miterlimit="10" cx="102.252" cy="164.336" r="6.687"/>
<rect x="94.898" y="143.981" fill="#FEEDDD" width="13.5" height="20.5"/>
<path fill="none" stroke="#64350D" stroke-width="2" stroke-miterlimit="10" d="M110.148,88.398c0,0,16.75-6,26,2.25"/>
<path fill="none" stroke="#64350D" stroke-width="2" stroke-miterlimit="10" d="M91.898,87.898c0,0-16.75-6-26,2.25"/>
<path fill="#FFFFFF" d="M110.898,101.523c0,0-1.625,1-1,2.625c0,0,3.5,14.375,12.75,12.5c0,0,6.5-1.125,11-4.875
	c0,0,4.25-8.125-0.25-10.125C133.398,101.648,126.273,98.898,110.898,101.523z"/>
<circle fill="#64350D" cx="122.648" cy="106.398" r="5.25"/>
<path fill="#FFFFFF" d="M89.481,101.189c0,0,1.625,1,1,2.625c0,0-3.5,14.375-12.75,12.5c0,0-6.5-1.125-11-4.875
	c0,0-4.25-8.125,0.25-10.125C66.981,101.314,74.106,98.564,89.481,101.189z"/>
<circle fill="#64350D" cx="77.731" cy="106.064" r="5.25"/>
<path fill="#64350D" d="M48.564,89.815l-0.667,115.333c0,0,11.333,16.668,47.333,3.334l1.333-51.334c0,0-40.166-6.25-43.875-46.753
	c-0.102-7.428,1.235-16.009,4.542-25.914C78.398,23.148,48.564,89.815,48.564,89.815z"/>
<path fill="#9D9D9C" stroke="#633612" stroke-miterlimit="10" d="M44.564,101.816c0,0-10-10-3.333-30c0,0,4-6.667,9.333-2.667
	l0.667-29.333c0,0,1.333-7.333,15.333-11.333l47.334-24.667c0,0,10-6,22.666,7.333l16,21.333c0,0,2.666,1.333,2.666,6.667v26.667
	c0,0,7.334,2.667,6,14l2.668,22.667c0,0-4.668,10-8.668,6.666l-22-33.333c0,0-7.999-11.334-23.332-4.667L50.232,95.815
	C50.232,95.815,46.564,99.816,44.564,101.816z"/>
<path fill="none" stroke="#64350D" stroke-width="2" stroke-miterlimit="10" d="M82.732,133.482c0,0,13.333,0,19.333,4.166
	c0,0,4.333,3.166,10,0.666"/>
<line fill="none" stroke="#64350D" stroke-width="2" stroke-miterlimit="10" x1="94.398" y1="139.982" x2="99.565" y2="141.648"/>
<polyline fill="none" stroke="#64350D" stroke-width="2" stroke-miterlimit="10" points="98.398,102.648 96.148,120.648 
	100.398,123.398 "/>
<g>
	<circle fill="#FFFFFF" cx="98.232" cy="35.398" r="6.333"/>
	<path fill="#FFFFFF" d="M92.232,36.399c0,0,2.333,16.333,16.333,16.667c4.327-0.45,14-3,15-15c0,0-18.001,4.833-18.834-1.833
		L92.232,36.399z"/>
	<polygon fill="#FFFFFF" points="91.899,35.398 87.231,34.232 91.398,36.398 90.231,37.732 93.231,37.232 	"/>
</g>
<rect x="19.066" y="205.547" fill="#FFFFFF" width="209" height="40.602"/>
<polygon fill="#9D9D9C" points="155.23,65.816 46.898,68.148 49.898,74.898 120.148,67.398 154.398,70.148 "/>
</svg>
