<?xml version="1.0" encoding="UTF-8" standalone="no"?>
<svg
   xmlns:dc="http://purl.org/dc/elements/1.1/"
   xmlns:cc="http://creativecommons.org/ns#"
   xmlns:rdf="http://www.w3.org/1999/02/22-rdf-syntax-ns#"
   xmlns:svg="http://www.w3.org/2000/svg"
   xmlns="http://www.w3.org/2000/svg"
   xmlns:sodipodi="http://sodipodi.sourceforge.net/DTD/sodipodi-0.dtd"
   xmlns:inkscape="http://www.inkscape.org/namespaces/inkscape"
   version="1.1"
   x="0px"
   y="0px"
   viewBox="0 0 110 110"
   enable-background="new 0 0 90 90"
   xml:space="preserve"
   id="svg2"
   inkscape:version="0.91 r13725"
   sodipodi:docname="controller.svg"
   width="110"
   height="110"><metadata
     id="metadata34"><rdf:RDF><cc:Work
         rdf:about=""><dc:format>image/svg+xml</dc:format><dc:type
           rdf:resource="http://purl.org/dc/dcmitype/StillImage" /><dc:title></dc:title></cc:Work></rdf:RDF></metadata><defs
     id="defs32" /><sodipodi:namedview
     pagecolor="#ffffff"
     bordercolor="#666666"
     borderopacity="1"
     objecttolerance="10"
     gridtolerance="10"
     guidetolerance="10"
     inkscape:pageopacity="0"
     inkscape:pageshadow="2"
     inkscape:window-width="1280"
     inkscape:window-height="724"
     id="namedview30"
     showgrid="false"
     inkscape:zoom="4.1955556"
     inkscape:cx="36.988391"
     inkscape:cy="61.775782"
     inkscape:window-x="0"
     inkscape:window-y="24"
     inkscape:window-maximized="1"
     inkscape:current-layer="g4"
     fit-margin-left="0.4" /><g
     id="g4"
     transform="translate(0,-2.5)"><path
       d="m 49.172246,58.187288 c 0,-7.4 -6,-13.4 -13.4,-13.4 -7.4,0 -13.4,6 -13.4,13.4 0,7.4 6.1,13.3 13.4,13.3 7.4,0 13.4,-6 13.4,-13.3 z m -13.4,10.9 c -6,0 -11,-4.9 -11,-11 0,-6.1 4.9,-11 11,-11 6,0 11,4.9 11,11 0,6.1 -4.9,11 -11,11 z"
       id="path6"
       style="fill:#575756;fill-opacity:1"
       inkscape:connector-curvature="0" /><path
       d="m 74.172246,44.787288 c -7.4,0 -13.4,6 -13.4,13.4 0,7.4 6,13.3 13.4,13.3 7.4,0 13.4,-6 13.4,-13.4 0,-7.4 -6.1,-13.3 -13.4,-13.3 z m 0,24.3 c -6,0 -11,-4.9 -11,-11 0,-6.1 4.9,-11 11,-11 6,0 11,4.9 11,11 0,6.1 -5,11 -11,11 z"
       id="path8"
       style="fill:#575756;fill-opacity:1"
       inkscape:connector-curvature="0" /><path
       d="m 98.572246,76.087288 -5.5,-20.2 -1.9,-5.9 c -2.5,-7.6 -9.4,-12.7 -17.4,-12.7 -1.9,0 -3.7,0.3 -5.5,0.9 -2.5,0.8 -4.7,2.1 -6.7,3.9 l -4.8,0 0,-5.2 c 0,-2.4 1,-4.6 2.8,-5.9 1.5,-1.1 3.3,-1.7 5.5,-1.7 l 6.1,0 c 0.1,0 3.9,0.1 6.5,-2.5 1.6,-1.6 2.4,-3.7 2.4,-6.5 l 0,-6.2 -2.3,0 0,6.2 c 0,2 -0.6,3.6 -1.7,4.7 -1.9,1.8 -4.8,1.8 -4.8,1.8 l -6.2,0 c -2.7,0 -5.1,0.7 -7,2.1 -2.3,1.8 -3.7,4.7 -3.7,7.9 l 0,5.2 -6,0 c -1.9,-1.8 -4.2,-3.1 -6.7,-3.9 -1.8,-0.6 -3.7,-0.9 -5.5,-0.9 -7.9,0 -14.9,5.1 -17.3,12.7 l -1.9,6 -5.6,20.1 c -3.0000003,9.4 1.5,19 10.3,21.8 1.7,0.5 3.4,0.8 5.2,0.8 7.2,0 13.3,-4.7 15.7,-12 l 1.5,-4 22,0 1.5,4 c 2.3,7.3 8.5,12.1 15.7,12.1 1.7,0 3.5,-0.3 5.2,-0.8 8.6,-2.9 13.100004,-12.5 10.1,-21.8 z m -11.1,19.4 c -1.5,0.5 -3,0.7 -4.4,0.7 -6.1,0 -11.4,-4.1 -13.4,-10.4 l -2,-5.6 -25.4,0 -2.1,5.6 c -2,6.3 -7.3,10.4 -13.4,10.4 -1.5,0 -3,-0.2 -4.4,-0.7 -7.4,-2.4 -11.3,-10.6 -8.7,-18.8 l 5.5,-20.1 1.9,-5.9 c 2.1,-6.6 8.1,-11 15,-11 1.6,0 3.2,0.3 4.8,0.8 2.3,0.7 4.3,2 6.1,3.6 l 0.3,0.3 15.1,0 0.3,-0.3 c 1.8,-1.7 3.8,-2.9 6.1,-3.6 1.6,-0.5 3.2,-0.8 4.8,-0.8 6.9,0 12.9,4.4 15,11 l 1.9,5.9 5.5,20.2 c 2.9,8.1 -1,16.3 -8.5,18.7 z"
       id="path10"
       style="opacity:1;fill:#575756;fill-opacity:1;fill-rule:nonzero"
       inkscape:connector-curvature="0" /><circle
       cx="68.472244"
       cy="58.18729"
       r="2.4000001"
       id="circle12"
       style="fill:#575756;fill-opacity:1" /><circle
       cx="79.872246"
       cy="58.18729"
       r="2.4000001"
       id="circle14"
       style="fill:#575756;fill-opacity:1" /><circle
       cx="74.172249"
       cy="63.887291"
       r="2.4000001"
       id="circle16"
       style="fill:#575756;fill-opacity:1" /><circle
       cx="74.172249"
       cy="52.487289"
       r="2.4000001"
       id="circle18"
       style="fill:#575756;fill-opacity:1" /><path
       d="m 41.372246,55.987288 -3.2,0 c -0.1,0 -0.2,-0.1 -0.2,-0.2 l 0,-3.2 c 0,-0.1 -0.1,-0.2 -0.2,-0.2 l -3.8,0 c -0.1,0 -0.2,0.1 -0.2,0.2 l 0,3.2 c 0,0.1 -0.1,0.2 -0.2,0.2 l -3.2,0 c -0.1,0 -0.2,0.1 -0.2,0.2 l 0,3.8 c 0,0.1 0.1,0.2 0.2,0.2 l 3.2,0 c 0.1,0 0.2,0.1 0.2,0.2 l 0,3.2 c 0,0.1 0.1,0.2 0.2,0.2 l 3.8,0 c 0.1,0 0.2,-0.1 0.2,-0.2 l 0,-3.1 c 0,-0.1 0.1,-0.2 0.2,-0.2 l 3.2,0 c 0.1,0 0.2,-0.1 0.2,-0.2 l 0,-3.8 c 0.1,-0.2 0,-0.3 -0.2,-0.3 z"
       id="path20"
       style="fill:#575756;fill-opacity:1"
       inkscape:connector-curvature="0" /><path
       d="m 50.772246,73.387288 -5.2,0 c -0.8,0 -1.5,0.7 -1.5,1.5 0,0.8 0.7,1.5 1.5,1.5 l 5.2,0 c 0.8,0 1.5,-0.7 1.5,-1.5 0,-0.8 -0.7,-1.5 -1.5,-1.5 z"
       id="path22"
       style="fill:#575756;fill-opacity:1"
       inkscape:connector-curvature="0" /><path
       d="m 64.372246,73.387288 -5.2,0 c -0.8,0 -1.5,0.7 -1.5,1.5 0,0.8 0.7,1.5 1.5,1.5 l 5.2,0 c 0.8,0 1.5,-0.7 1.5,-1.5 0,-0.8 -0.7,-1.5 -1.5,-1.5 z"
       id="path24"
       style="fill:#575756;fill-opacity:1"
       inkscape:connector-curvature="0" /></g></svg>