<?xml version="1.0" encoding="UTF-8" standalone="no"?>
<svg
   xmlns:dc="http://purl.org/dc/elements/1.1/"
   xmlns:cc="http://creativecommons.org/ns#"
   xmlns:rdf="http://www.w3.org/1999/02/22-rdf-syntax-ns#"
   xmlns:svg="http://www.w3.org/2000/svg"
   xmlns="http://www.w3.org/2000/svg"
   xmlns:sodipodi="http://sodipodi.sourceforge.net/DTD/sodipodi-0.dtd"
   xmlns:inkscape="http://www.inkscape.org/namespaces/inkscape"
   version="1.1"
   x="0px"
   y="0px"
   viewBox="0 0 90 112.5"
   enable-background="new 0 0 90 90"
   xml:space="preserve"
   id="svg2"
   inkscape:version="0.91 r13725"
   sodipodi:docname="controller.svg"><metadata
     id="metadata34"><rdf:RDF><cc:Work
         rdf:about=""><dc:format>image/svg+xml</dc:format><dc:type
           rdf:resource="http://purl.org/dc/dcmitype/StillImage" /><dc:title></dc:title></cc:Work></rdf:RDF></metadata><defs
     id="defs32" /><sodipodi:namedview
     pagecolor="#ffffff"
     bordercolor="#666666"
     borderopacity="1"
     objecttolerance="10"
     gridtolerance="10"
     guidetolerance="10"
     inkscape:pageopacity="0"
     inkscape:pageshadow="2"
     inkscape:window-width="1280"
     inkscape:window-height="724"
     id="namedview30"
     showgrid="false"
     inkscape:zoom="5.9334116"
     inkscape:cx="82.706236"
     inkscape:cy="62.371016"
     inkscape:window-x="0"
     inkscape:window-y="24"
     inkscape:window-maximized="1"
     inkscape:current-layer="g4" /><g
     id="g4"><path
       d="M39.4,47.7c0-7.4-6-13.4-13.4-13.4c-7.4,0-13.4,6-13.4,13.4S18.7,61,26,61C33.4,61,39.4,55,39.4,47.7z M26,58.6   c-6,0-11-4.9-11-11s4.9-11,11-11c6,0,11,4.9,11,11S32.1,58.6,26,58.6z"
       id="path6"
       style="fill:#575756;fill-opacity:1" /><path
       d="M64.4,34.3c-7.4,0-13.4,6-13.4,13.4S57,61,64.4,61c7.4,0,13.4-6,13.4-13.4S71.7,34.3,64.4,34.3z M64.4,58.6   c-6,0-11-4.9-11-11s4.9-11,11-11c6,0,11,4.9,11,11S70.4,58.6,64.4,58.6z"
       id="path8"
       style="fill:#575756;fill-opacity:1" /><path
       d="M88.8,65.6l-5.5-20.2l-1.9-5.9C78.9,31.9,72,26.8,64,26.8c-1.9,0-3.7,0.3-5.5,0.9c-2.5,0.8-4.7,2.1-6.7,3.9H47v-5.2   c0-2.4,1-4.6,2.8-5.9c1.5-1.1,3.3-1.7,5.5-1.7l6.1,0c0.1,0,3.9,0.1,6.5-2.5c1.6-1.6,2.4-3.7,2.4-6.5V3.6H68v6.2   c0,2-0.6,3.6-1.7,4.7c-1.9,1.8-4.8,1.8-4.8,1.8h-6.2c-2.7,0-5.1,0.7-7,2.1c-2.3,1.8-3.7,4.7-3.7,7.9v5.2h-6   c-1.9-1.8-4.2-3.1-6.7-3.9c-1.8-0.6-3.7-0.9-5.5-0.9c-7.9,0-14.9,5.1-17.3,12.7l-1.9,6L1.6,65.5c-3,9.4,1.5,19,10.3,21.8   c1.7,0.5,3.4,0.8,5.2,0.8c7.2,0,13.3-4.7,15.7-12l1.5-4h22l1.5,4c2.3,7.3,8.5,12.1,15.7,12.1c1.7,0,3.5-0.3,5.2-0.8   C87.3,84.5,91.8,74.9,88.8,65.6z M77.7,85c-1.5,0.5-3,0.7-4.4,0.7c-6.1,0-11.4-4.1-13.4-10.4l-2-5.6H32.5l-2.1,5.6   c-2,6.3-7.3,10.4-13.4,10.4c-1.5,0-3-0.2-4.4-0.7C5.2,82.6,1.3,74.4,3.9,66.2l5.5-20.1l1.9-5.9c2.1-6.6,8.1-11,15-11   c1.6,0,3.2,0.3,4.8,0.8c2.3,0.7,4.3,2,6.1,3.6l0.3,0.3h15.1l0.3-0.3c1.8-1.7,3.8-2.9,6.1-3.6c1.6-0.5,3.2-0.8,4.8-0.8   c6.9,0,12.9,4.4,15,11l1.9,5.9l5.5,20.2C89.1,74.4,85.2,82.6,77.7,85z"
       id="path10"
       style="opacity:1;fill-rule:nonzero;fill:#575756;fill-opacity:1" /><circle
       cx="58.7"
       cy="47.7"
       r="2.4"
       id="circle12"
       style="fill:#575756;fill-opacity:1" /><circle
       cx="70.1"
       cy="47.7"
       r="2.4"
       id="circle14"
       style="fill:#575756;fill-opacity:1" /><circle
       cx="64.4"
       cy="53.4"
       r="2.4"
       id="circle16"
       style="fill:#575756;fill-opacity:1" /><circle
       cx="64.4"
       cy="42"
       r="2.4"
       id="circle18"
       style="fill:#575756;fill-opacity:1" /><path
       d="M31.6,45.5h-3.2c-0.1,0-0.2-0.1-0.2-0.2v-3.2c0-0.1-0.1-0.2-0.2-0.2h-3.8c-0.1,0-0.2,0.1-0.2,0.2v3.2   c0,0.1-0.1,0.2-0.2,0.2h-3.2c-0.1,0-0.2,0.1-0.2,0.2v3.8c0,0.1,0.1,0.2,0.2,0.2h3.2c0.1,0,0.2,0.1,0.2,0.2v3.2   c0,0.1,0.1,0.2,0.2,0.2h3.8c0.1,0,0.2-0.1,0.2-0.2V50c0-0.1,0.1-0.2,0.2-0.2h3.2c0.1,0,0.2-0.1,0.2-0.2v-3.8   C31.9,45.6,31.8,45.5,31.6,45.5z"
       id="path20"
       style="fill:#575756;fill-opacity:1" /><path
       d="M41,62.9h-5.2c-0.8,0-1.5,0.7-1.5,1.5c0,0.8,0.7,1.5,1.5,1.5H41c0.8,0,1.5-0.7,1.5-1.5C42.5,63.6,41.8,62.9,41,62.9z"
       id="path22"
       style="fill:#575756;fill-opacity:1" /><path
       d="M54.6,62.9h-5.2c-0.8,0-1.5,0.7-1.5,1.5c0,0.8,0.7,1.5,1.5,1.5h5.2c0.8,0,1.5-0.7,1.5-1.5C56.1,63.6,55.4,62.9,54.6,62.9z"
       id="path24"
       style="fill:#575756;fill-opacity:1" /></g></svg>