<?xml version="1.0" encoding="utf-8"?>
<!-- Generator: Adobe Illustrator 16.0.0, SVG Export Plug-In . SVG Version: 6.00 Build 0)  -->
<!DOCTYPE svg PUBLIC "-//W3C//DTD SVG 1.1//EN" "http://www.w3.org/Graphics/SVG/1.1/DTD/svg11.dtd">
<svg version="1.1" id="Calque_1" xmlns="http://www.w3.org/2000/svg" xmlns:xlink="http://www.w3.org/1999/xlink" x="0px" y="0px"
	 width="434.89px" height="148.59px" viewBox="0 0 434.89 148.59" enable-background="new 0 0 434.89 148.59" xml:space="preserve">
<path fill="#70B52E" d="M35.564,91.114c7.775,0,13.042-3.135,16.428-6.897l5.392,5.269c-4.763,5.393-11.661,9.027-21.82,9.027
	c-17.056,0-28.089-11.784-28.089-26.957c0-15.171,11.662-27.086,26.832-27.086c16.679,0,26.711,12.787,26.083,29.966H16.251
	C17.38,84.345,24.155,91.114,35.564,91.114z M51.615,67.794c-0.751-8.903-6.398-15.928-17.308-15.928
	c-9.904,0-16.55,6.396-17.928,15.928H51.615z"/>
<path fill="#70B52E" d="M65.94,71.556c0-15.171,11.659-27.086,26.96-27.086c9.281,0,15.67,3.512,20.44,9.281l-6.269,5.141
	c-3.141-4.141-7.653-6.647-14.171-6.647c-11.039,0-17.931,8.275-17.931,19.312c0,11.032,6.892,19.308,17.931,19.308
	c7.146,0,11.659-2.884,14.921-6.769l6.019,5.141c-4.89,5.891-11.287,9.277-20.94,9.277C77.599,98.513,65.94,86.729,65.94,71.556z"/>
<path fill="#70B52E" d="M118.256,71.556c0-15.171,12.039-27.086,27.589-27.086c15.422,0,27.332,11.916,27.332,27.086
	c0,15.173-11.909,26.957-27.332,26.957C130.294,98.513,118.256,86.729,118.256,71.556z M164.275,71.556
	c0-11.159-7.398-19.44-18.431-19.44c-11.161,0-18.685,8.281-18.685,19.44c0,11.161,7.524,19.436,18.685,19.436
	C156.877,90.991,164.275,82.717,164.275,71.556z"/>
<path fill="#575756" d="M178.987,71.556c0-15.171,11.659-27.086,26.96-27.086c9.281,0,15.671,3.512,20.44,9.281l-6.269,5.141
	c-3.139-4.141-7.653-6.647-14.171-6.647c-11.039,0-17.93,8.275-17.93,19.312c0,11.032,6.892,19.308,17.93,19.308
	c7.146,0,11.659-2.884,14.921-6.769l6.02,5.141c-4.891,5.891-11.288,9.277-20.941,9.277
	C190.646,98.513,178.987,86.729,178.987,71.556z"/>
<path fill="#575756" d="M243.971,6.977v90.534h-8.782V12.558L243.971,6.977z"/>
<path fill="#575756" d="M255.262,24.406c0-3.635,3.012-6.269,6.27-6.269c3.262,0,6.273,2.634,6.273,6.269
	c0,3.635-3.012,6.147-6.273,6.147C258.273,30.553,255.262,28.041,255.262,24.406z M257.146,45.597h8.775v51.914h-8.775V45.597z"/>
<path fill="#575756" d="M275.213,71.556c0-15.171,11.659-27.086,26.961-27.086c9.279,0,15.67,3.512,20.439,9.281l-6.275,5.141
	c-3.134-4.141-7.646-6.647-14.164-6.647c-11.039,0-17.934,8.275-17.934,19.312c0,11.032,6.895,19.308,17.934,19.308
	c7.146,0,11.658-2.884,14.922-6.769l6.018,5.141c-4.889,5.891-11.287,9.277-20.939,9.277
	C286.872,98.513,275.213,86.729,275.213,71.556z"/>
<path fill="#575756" d="M339.565,97.511h-8.773V6.977h8.773v58.055c0,2.635-0.245,5.269-0.624,7.404l24.705-26.838h10.158
	l-19.942,21.82l19.823,25.846l-7.158,4.248L347.72,73.185l-8.154,8.525V97.511z"/>
<path fill="#575756" d="M201.224,21.765c0,0.181,0,0.329,0,0.329S201.224,21.946,201.224,21.765c0-0.178,0-0.325,0-0.325
	S201.224,21.587,201.224,21.765z"/>
<path fill="#575756" d="M198.228,115.521l-52.479-44.03l1.751,3.271l-0.174-0.167l-1.608-3.093l6.682,68.188l3.192-1.684
	l16.786-8.848l7.743,14.666l6.178-3.262l-7.729-14.672l16.474-8.688L198.228,115.521z M154.61,88.622l-0.005-0.029l0.219-0.123
	l0.012,0.035c-0.026-0.296,30.789,25.541,30.789,25.541l-13.473,7.321l-0.188,0.101l-13.663,6.975
	C158.3,128.442,154.395,88.429,154.61,88.622z"/>
<path fill="#70B52E" d="M418.425,75.365c0.96-1.998,1.497-4.064,1.83-6.157l0.09-0.01l0.08-1.128c0.07-0.7,0.134-1.394,0.142-2.087
	l2.641-38.779l1.135-14.902l-40.521,36.502c-0.114,0.117-1.1,1.168-2.293,2.822c-1.122,1.358-2.158,2.824-2.957,4.478
	c-1.659,3.445-2.253,7.102-2.086,10.66c0.016,0.428-0.04,0.832,0.008,1.27c0.008,0.119,0.055,0.21,0.07,0.316
	c0.854,7.072,5.075,13.554,11.855,17.031l0.348,0.241l0.099,0.025c0,0.01,0.008,0.01,0.008,0.014
	c5.755,2.777,12.104,2.789,17.63,0.639c1.518-0.48,3.02-1.093,4.455-2.031c1.798-1.168,3.241-2.712,4.533-4.458
	C416.605,78.463,417.618,77.014,418.425,75.365z M413.104,69.275L413.104,69.275c-0.253,1.025-0.589,2.026-1.066,3.006
	c-3.613,7.485-12.594,10.613-20.081,6.995c-7.479-3.615-10.613-12.6-6.996-20.084c0.869-1.797,2.059-3.319,3.446-4.583l-0.087-0.045
	c0.273-0.333,0.471-0.557,0.471-0.557l27.01-24.332l-0.016,0.303l-0.012,0.016l-0.06,0.894v0.01l-2.285,33.672
	c0.008,0,0,0.009-0.008,0.009l-0.3,4.576c0,0.01,0,0.01-0.004,0.016L413.104,69.275z"/>
</svg>
