<?xml version="1.0" encoding="utf-8"?>
<!-- Generator: Adobe Illustrator 16.0.0, SVG Export Plug-In . SVG Version: 6.00 Build 0)  -->
<!DOCTYPE svg PUBLIC "-//W3C//DTD SVG 1.1//EN" "http://www.w3.org/Graphics/SVG/1.1/DTD/svg11.dtd">
<svg version="1.1" id="Calque_1" xmlns="http://www.w3.org/2000/svg" xmlns:xlink="http://www.w3.org/1999/xlink" x="0px" y="0px"
	 width="136.77px" height="93.17px" viewBox="0 0 136.77 93.17" enable-background="new 0 0 136.77 93.17" xml:space="preserve">
<path fill-rule="evenodd" clip-rule="evenodd" fill="#575756" d="M111.717,49.156c-0.284,1.908-0.769,4.843-1.13,7.792
	c-0.085,0.687,0.053,1.553,0.42,2.121c3.753,5.821,6.047,12.047,5.938,19.092c-0.145,9.565-7.02,16.721-16.581,17.274
	c-7.419,0.432-14.019-1.809-20.178-5.705c-0.734-0.465-1.386-0.62-2.286-0.405c-18.992,4.532-38.472-3.688-48.518-20.738
	c-11.201-19.012-5.737-43.719,12.505-56.794c7.016-5.03,14.854-7.839,23.487-8.164c16.398-0.616,29.456,5.763,38.915,19.183
	C109.605,30.352,111.752,38.927,111.717,49.156z M98.202,91.65c0.904-0.052,1.817-0.046,2.713-0.166
	c4.204-0.568,7.744-2.24,10.073-6.008c2.041-3.302,2.465-6.954,1.937-10.617c-1.582-10.974-7.391-19.107-17.289-24.094
	c-9.549-4.81-21.578-0.048-24.992,9.877c-2.028,5.893-1.198,11.586,2.367,16.77C79.087,86.247,87.586,90.824,98.202,91.65z
	 M65.753,62.204c0-10.152,0-20.178,0-30.203c-0.196-0.048-0.317-0.104-0.439-0.104c-6.04-0.006-12.081,0.005-18.122-0.027
	c-0.791-0.005-0.889,0.43-1.018,1.014c-2.073,9.41-2.08,18.816-0.052,28.237c0.186,0.854,0.494,1.108,1.345,1.103
	c5.048-0.038,10.097-0.019,15.145-0.019C63.637,62.204,64.662,62.204,65.753,62.204z M42.404,31.89
	c-3.874,0-7.618-0.018-11.362,0.037c-0.273,0.004-0.661,0.483-0.789,0.819c-3.676,9.542-3.682,19.095,0.031,28.623
	c0.145,0.376,0.767,0.778,1.184,0.797c1.894,0.086,3.793,0.038,5.691,0.038c1.703,0,3.406,0,5.225,0
	C40.177,52.022,40.18,42.015,42.404,31.89z M69.8,54.014c5.382-6.746,12.185-9.699,20.657-8.824c0-0.486,0.036-0.826-0.005-1.154
	c-0.47-3.676-0.976-7.347-1.412-11.027c-0.114-0.952-0.532-1.152-1.43-1.145c-5.57,0.042-11.14,0.02-16.71,0.024
	c-0.371,0.001-0.744,0.045-1.101,0.069C69.8,39.294,69.8,46.521,69.8,54.014z M47.467,66.15c2.405,7.008,5.609,13.365,11.736,17.777
	c1.934,1.393,4.111,2.299,6.461,2.603c0-6.825,0-13.573,0-20.38C59.557,66.15,53.617,66.15,47.467,66.15z M47.671,27.915
	c6.016,0,12.032,0,18.072,0c0-6.817,0-13.551,0-20.296C57.406,8.71,50.247,18.511,47.671,27.915z M87.74,27.941
	c-0.331-0.934-0.586-1.705-0.876-2.462c-2.173-5.667-5.035-10.863-9.926-14.701c-2.106-1.653-4.446-2.738-7.142-3.209
	c0,6.822,0,13.568,0,20.373C75.765,27.941,81.658,27.941,87.74,27.941z M106.987,54.187c0.13-0.259,0.22-0.367,0.24-0.486
	c1.204-7.222,0.524-14.255-2.183-21.065c-0.142-0.356-0.804-0.706-1.232-0.717c-2.542-0.067-5.087-0.033-7.63-0.033
	c-1.103,0-2.205,0-3.169,0c0.548,4.796,1.079,9.452,1.624,14.222C99.139,47.864,103.444,50.316,106.987,54.187z M102.992,27.974
	c-4.98-8.417-11.681-14.446-20.704-17.794c4.813,5.075,7.379,11.35,9.593,17.794C95.544,27.974,99.12,27.974,102.992,27.974z
	 M53.171,10.189c-8.993,3.401-15.746,9.389-20.752,17.807c3.643,0,7.038,0.015,10.432-0.029c0.258-0.003,0.648-0.375,0.746-0.656
	C45.781,21.043,48.484,15.073,53.171,10.189z M32.4,66.091c5.038,8.386,11.718,14.37,20.371,17.747
	c-1.439-2.056-3.2-4.104-4.43-6.433c-1.763-3.338-3.124-6.886-4.694-10.327c-0.178-0.387-0.598-0.938-0.916-0.942
	C39.38,66.065,36.025,66.091,32.4,66.091z M69.79,79.776c0,2.351,0,4.478,0,6.829c1.523-0.523,2.911-1.001,4.369-1.504
	C72.643,83.254,71.288,81.603,69.79,79.776z"/>
<path fill-rule="evenodd" clip-rule="evenodd" fill="#575756" d="M80.191,61.58c0.72-0.814,1.512-1.71,2.264-2.562
	c2.538,2.56,4.992,5.034,7.499,7.562c-0.802,0.755-1.673,1.576-2.403,2.267C85.105,66.433,82.607,63.966,80.191,61.58z"/>
</svg>
